STARTFONT 2.1
COMMENT
COMMENT Converted from OpenType font "MSX-Screen0.ttf" by "otf2bdf 3.0".
COMMENT
FONT -FreeType-MSX Screen 0-Medium-R-Normal--12-120-72-72-C-75-ISO10646-1
SIZE 12 72 72
FONTBOUNDINGBOX 9 12 0 -1
STARTPROPERTIES 19
FOUNDRY "FreeType"
FAMILY_NAME "MSX Screen 0"
WEIGHT_NAME "Medium"
SLANT "R"
SETWIDTH_NAME "Normal"
ADD_STYLE_NAME ""
PIXEL_SIZE 12
POINT_SIZE 120
RESOLUTION_X 72
RESOLUTION_Y 72
SPACING "C"
AVERAGE_WIDTH 80
CHARSET_REGISTRY "ISO10646"
CHARSET_ENCODING "1"
FONT_ASCENT 10
FONT_DESCENT 1
COPYRIGHT "Created by Andy Teijelo with FontForge 2.0 (http://fontforge.sf.net)"
_OTF_FONTFILE "MSX-Screen0.ttf"
_OTF_PSNAME "MSX-Screen0"
ENDPROPERTIES
CHARS 254
STARTCHAR 0020
ENCODING 32
SWIDTH 750 0
DWIDTH 9 0
BBX 0 0 0 0
BITMAP
ENDCHAR
STARTCHAR 0021
ENCODING 33
SWIDTH 750 0
DWIDTH 9 0
BBX 2 11 3 0
BITMAP
C0
C0
C0
C0
C0
C0
C0
00
00
00
80
ENDCHAR
STARTCHAR 0022
ENCODING 34
SWIDTH 750 0
DWIDTH 9 0
BBX 4 5 2 6
BITMAP
B0
B0
B0
B0
B0
ENDCHAR
STARTCHAR 0023
ENCODING 35
SWIDTH 750 0
DWIDTH 9 0
BBX 7 11 0 0
BITMAP
6C
6C
6C
6E
FE
6C
7E
FE
6C
6C
6C
ENDCHAR
STARTCHAR 0024
ENCODING 36
SWIDTH 750 0
DWIDTH 9 0
BBX 8 10 0 1
BITMAP
18
3F
78
D8
7C
3E
1A
FC
F8
10
ENDCHAR
STARTCHAR 0025
ENCODING 37
SWIDTH 750 0
DWIDTH 9 0
BBX 8 11 0 0
BITMAP
E0
E0
E2
E6
0C
18
30
60
CF
0F
0F
ENDCHAR
STARTCHAR 0026
ENCODING 38
SWIDTH 750 0
DWIDTH 9 0
BBX 7 10 0 1
BITMAP
60
D0
70
60
D2
CE
CC
CE
C8
78
ENDCHAR
STARTCHAR 0027
ENCODING 39
SWIDTH 750 0
DWIDTH 9 0
BBX 4 4 2 7
BITMAP
30
60
C0
80
ENDCHAR
STARTCHAR 0028
ENCODING 40
SWIDTH 750 0
DWIDTH 9 0
BBX 4 10 2 1
BITMAP
30
60
80
80
80
80
80
40
20
10
ENDCHAR
STARTCHAR 0029
ENCODING 41
SWIDTH 750 0
DWIDTH 9 0
BBX 4 10 2 1
BITMAP
80
40
30
30
30
30
30
60
C0
80
ENDCHAR
STARTCHAR 002A
ENCODING 42
SWIDTH 750 0
DWIDTH 9 0
BBX 7 11 0 0
BITMAP
18
18
9A
5E
3C
18
38
7C
DA
18
18
ENDCHAR
STARTCHAR 002B
ENCODING 43
SWIDTH 750 0
DWIDTH 9 0
BBX 8 7 0 2
BITMAP
18
18
18
FF
F8
18
18
ENDCHAR
STARTCHAR 002C
ENCODING 44
SWIDTH 750 0
DWIDTH 9 0
BBX 3 4 2 -1
BITMAP
60
60
60
80
ENDCHAR
STARTCHAR 002D
ENCODING 45
SWIDTH 750 0
DWIDTH 9 0
BBX 6 1 2 5
BITMAP
FC
ENDCHAR
STARTCHAR 002E
ENCODING 46
SWIDTH 750 0
DWIDTH 9 0
BBX 3 3 2 0
BITMAP
E0
E0
E0
ENDCHAR
STARTCHAR 002F
ENCODING 47
SWIDTH 750 0
DWIDTH 9 0
BBX 7 7 0 1
BITMAP
02
04
08
10
20
40
80
ENDCHAR
STARTCHAR 0030
ENCODING 48
SWIDTH 750 0
DWIDTH 9 0
BBX 8 11 0 0
BITMAP
7C
7C
C3
C7
CF
DB
F3
E3
C3
C2
7C
ENDCHAR
STARTCHAR 0031
ENCODING 49
SWIDTH 750 0
DWIDTH 9 0
BBX 8 11 0 0
BITMAP
08
18
38
58
98
18
18
18
18
1F
FF
ENDCHAR
STARTCHAR 0032
ENCODING 50
SWIDTH 750 0
DWIDTH 9 0
BBX 8 11 0 0
BITMAP
7C
7C
C3
03
03
04
08
78
C0
FF
FF
ENDCHAR
STARTCHAR 0033
ENCODING 51
SWIDTH 750 0
DWIDTH 9 0
BBX 8 11 0 0
BITMAP
7C
7C
C3
03
03
1C
1F
03
83
42
7C
ENDCHAR
STARTCHAR 0034
ENCODING 52
SWIDTH 750 0
DWIDTH 9 0
BBX 7 11 0 0
BITMAP
04
0C
1C
3C
6C
CC
CE
FE
0C
0C
0C
ENDCHAR
STARTCHAR 0035
ENCODING 53
SWIDTH 750 0
DWIDTH 9 0
BBX 8 11 0 0
BITMAP
FF
FF
C0
F8
F8
0C
06
02
04
08
F8
ENDCHAR
STARTCHAR 0036
ENCODING 54
SWIDTH 750 0
DWIDTH 9 0
BBX 8 11 0 0
BITMAP
1C
1C
20
40
C0
FC
C3
C3
C3
C2
7C
ENDCHAR
STARTCHAR 0037
ENCODING 55
SWIDTH 750 0
DWIDTH 9 0
BBX 8 11 0 0
BITMAP
FF
FF
C3
86
0C
18
18
18
18
18
18
ENDCHAR
STARTCHAR 0038
ENCODING 56
SWIDTH 750 0
DWIDTH 9 0
BBX 8 11 0 0
BITMAP
7C
7C
C3
C3
C3
7C
43
C3
C3
C2
7C
ENDCHAR
STARTCHAR 0039
ENCODING 57
SWIDTH 750 0
DWIDTH 9 0
BBX 8 11 0 0
BITMAP
7C
7C
C3
C3
C3
7F
7F
03
04
08
78
ENDCHAR
STARTCHAR 003A
ENCODING 58
SWIDTH 750 0
DWIDTH 9 0
BBX 1 5 3 3
BITMAP
80
00
00
00
80
ENDCHAR
STARTCHAR 003B
ENCODING 59
SWIDTH 750 0
DWIDTH 9 0
BBX 3 8 2 0
BITMAP
40
00
00
00
60
60
60
80
ENDCHAR
STARTCHAR 003C
ENCODING 60
SWIDTH 750 0
DWIDTH 9 0
BBX 8 11 0 0
BITMAP
0F
0E
1C
38
70
E0
70
38
1C
0E
0F
ENDCHAR
STARTCHAR 003D
ENCODING 61
SWIDTH 750 0
DWIDTH 9 0
BBX 8 5 0 3
BITMAP
FF
FF
00
FF
FF
ENDCHAR
STARTCHAR 003E
ENCODING 62
SWIDTH 750 0
DWIDTH 9 0
BBX 7 11 0 0
BITMAP
E0
E0
70
38
1C
0E
0E
1C
38
70
E0
ENDCHAR
STARTCHAR 003F
ENCODING 63
SWIDTH 750 0
DWIDTH 9 0
BBX 8 11 0 0
BITMAP
7C
7C
C3
03
03
04
08
10
00
00
10
ENDCHAR
STARTCHAR 0040
ENCODING 64
SWIDTH 750 0
DWIDTH 9 0
BBX 8 11 0 0
BITMAP
7C
7C
C3
03
03
7B
5B
DB
DB
DA
7C
ENDCHAR
STARTCHAR 0041
ENCODING 65
SWIDTH 750 0
DWIDTH 9 0
BBX 8 10 0 1
BITMAP
18
2C
47
C3
C3
C3
FF
C3
C3
C3
ENDCHAR
STARTCHAR 0042
ENCODING 66
SWIDTH 750 0
DWIDTH 9 0
BBX 8 11 0 0
BITMAP
FC
FC
63
63
63
7C
63
63
63
62
FC
ENDCHAR
STARTCHAR 0043
ENCODING 67
SWIDTH 750 0
DWIDTH 9 0
BBX 7 11 0 0
BITMAP
1C
1C
22
40
C0
C0
C0
C0
62
22
1C
ENDCHAR
STARTCHAR 0044
ENCODING 68
SWIDTH 750 0
DWIDTH 9 0
BBX 8 11 0 0
BITMAP
F8
F8
6C
67
63
63
63
63
64
68
F8
ENDCHAR
STARTCHAR 0045
ENCODING 69
SWIDTH 750 0
DWIDTH 9 0
BBX 8 11 0 0
BITMAP
FF
FF
C0
C0
C0
FC
C0
C0
C0
FF
FF
ENDCHAR
STARTCHAR 0046
ENCODING 70
SWIDTH 750 0
DWIDTH 9 0
BBX 8 11 0 0
BITMAP
FF
FF
C0
C0
C0
FC
C0
C0
C0
C0
C0
ENDCHAR
STARTCHAR 0047
ENCODING 71
SWIDTH 750 0
DWIDTH 9 0
BBX 8 11 0 0
BITMAP
7C
7C
C2
C0
C0
DF
DF
C3
C3
C2
7C
ENDCHAR
STARTCHAR 0048
ENCODING 72
SWIDTH 750 0
DWIDTH 9 0
BBX 8 11 0 0
BITMAP
C3
C3
C3
C3
C3
FF
C3
C3
C3
C3
C3
ENDCHAR
STARTCHAR 0049
ENCODING 73
SWIDTH 750 0
DWIDTH 9 0
BBX 4 11 2 0
BITMAP
F0
F0
60
60
60
60
60
60
60
60
F0
ENDCHAR
STARTCHAR 004A
ENCODING 74
SWIDTH 750 0
DWIDTH 9 0
BBX 8 11 0 0
BITMAP
1F
1E
0C
0C
0C
0C
CC
CC
CC
C8
78
ENDCHAR
STARTCHAR 004B
ENCODING 75
SWIDTH 750 0
DWIDTH 9 0
BBX 7 11 0 0
BITMAP
C0
C2
C4
C8
D0
E0
F0
D8
CC
C6
C2
ENDCHAR
STARTCHAR 004C
ENCODING 76
SWIDTH 750 0
DWIDTH 9 0
BBX 8 11 0 0
BITMAP
C0
C0
C0
C0
C0
C0
C0
C0
C0
FF
FF
ENDCHAR
STARTCHAR 004D
ENCODING 77
SWIDTH 750 0
DWIDTH 9 0
BBX 8 11 0 0
BITMAP
81
C3
E7
DB
DB
DB
DB
C3
C3
C3
C3
ENDCHAR
STARTCHAR 004E
ENCODING 78
SWIDTH 750 0
DWIDTH 9 0
BBX 8 11 0 0
BITMAP
83
C3
E3
E3
E3
D3
CB
CF
CF
CF
C3
ENDCHAR
STARTCHAR 004F
ENCODING 79
SWIDTH 750 0
DWIDTH 9 0
BBX 8 11 0 0
BITMAP
7C
7C
C3
C3
C3
C3
C3
C3
C3
C2
7C
ENDCHAR
STARTCHAR 0050
ENCODING 80
SWIDTH 750 0
DWIDTH 9 0
BBX 8 11 0 0
BITMAP
FC
FC
C3
C3
C3
FC
C0
C0
C0
C0
C0
ENDCHAR
STARTCHAR 0051
ENCODING 81
SWIDTH 750 0
DWIDTH 9 0
BBX 8 11 0 0
BITMAP
7C
7C
C3
C3
C3
C3
C3
DB
CC
CE
7A
ENDCHAR
STARTCHAR 0052
ENCODING 82
SWIDTH 750 0
DWIDTH 9 0
BBX 8 11 0 0
BITMAP
FC
FC
C3
C3
C3
FC
F8
D8
CC
C6
C2
ENDCHAR
STARTCHAR 0053
ENCODING 83
SWIDTH 750 0
DWIDTH 9 0
BBX 8 11 0 0
BITMAP
7C
7C
C2
C0
C0
7C
7F
03
83
42
7C
ENDCHAR
STARTCHAR 0054
ENCODING 84
SWIDTH 750 0
DWIDTH 9 0
BBX 8 11 0 0
BITMAP
FF
FF
18
18
18
18
18
18
18
18
18
ENDCHAR
STARTCHAR 0055
ENCODING 85
SWIDTH 750 0
DWIDTH 9 0
BBX 8 11 0 0
BITMAP
C3
C3
C3
C3
C3
C3
C3
C3
C3
C2
7C
ENDCHAR
STARTCHAR 0056
ENCODING 86
SWIDTH 750 0
DWIDTH 9 0
BBX 8 11 0 0
BITMAP
C3
C3
C3
C3
C3
C3
E0
6C
6C
68
10
ENDCHAR
STARTCHAR 0057
ENCODING 87
SWIDTH 750 0
DWIDTH 9 0
BBX 8 11 0 0
BITMAP
C3
C3
C3
C3
C3
DB
DB
DB
EF
C7
83
ENDCHAR
STARTCHAR 0058
ENCODING 88
SWIDTH 750 0
DWIDTH 9 0
BBX 8 11 0 0
BITMAP
C3
C3
C3
C2
2C
18
38
64
C3
C3
C3
ENDCHAR
STARTCHAR 0059
ENCODING 89
SWIDTH 750 0
DWIDTH 9 0
BBX 8 11 0 0
BITMAP
C3
C3
C3
C3
C3
7C
38
18
18
18
18
ENDCHAR
STARTCHAR 005A
ENCODING 90
SWIDTH 750 0
DWIDTH 9 0
BBX 8 11 0 0
BITMAP
FF
FF
03
06
0C
18
30
60
C0
FF
FF
ENDCHAR
STARTCHAR 005B
ENCODING 91
SWIDTH 750 0
DWIDTH 9 0
BBX 4 11 2 0
BITMAP
F0
F0
80
80
80
80
80
80
80
F0
F0
ENDCHAR
STARTCHAR 005C
ENCODING 92
SWIDTH 750 0
DWIDTH 9 0
BBX 7 7 0 1
BITMAP
C0
60
30
18
0C
06
02
ENDCHAR
STARTCHAR 005D
ENCODING 93
SWIDTH 750 0
DWIDTH 9 0
BBX 4 11 2 0
BITMAP
F0
F0
30
30
30
30
30
30
30
30
F0
ENDCHAR
STARTCHAR 005E
ENCODING 94
SWIDTH 750 0
DWIDTH 9 0
BBX 7 4 0 7
BITMAP
18
2C
46
82
ENDCHAR
STARTCHAR 005F
ENCODING 95
SWIDTH 750 0
DWIDTH 9 0
BBX 8 2 0 0
BITMAP
FF
FF
ENDCHAR
STARTCHAR 0060
ENCODING 96
SWIDTH 750 0
DWIDTH 9 0
BBX 4 4 2 7
BITMAP
80
40
20
10
ENDCHAR
STARTCHAR 0061
ENCODING 97
SWIDTH 750 0
DWIDTH 9 0
BBX 8 8 0 0
BITMAP
7C
7C
03
03
7F
C3
43
7F
ENDCHAR
STARTCHAR 0062
ENCODING 98
SWIDTH 750 0
DWIDTH 9 0
BBX 8 11 0 0
BITMAP
C0
C0
C0
DC
DC
E3
C3
C3
E3
E2
9C
ENDCHAR
STARTCHAR 0063
ENCODING 99
SWIDTH 750 0
DWIDTH 9 0
BBX 7 8 0 0
BITMAP
7C
7C
C2
C0
C0
C2
C2
7C
ENDCHAR
STARTCHAR 0064
ENCODING 100
SWIDTH 750 0
DWIDTH 9 0
BBX 8 11 0 0
BITMAP
03
03
03
7B
7B
CF
C7
C3
C7
CF
7B
ENDCHAR
STARTCHAR 0065
ENCODING 101
SWIDTH 750 0
DWIDTH 9 0
BBX 8 8 0 0
BITMAP
7C
7C
C3
C3
FF
C0
FC
7C
ENDCHAR
STARTCHAR 0066
ENCODING 102
SWIDTH 750 0
DWIDTH 9 0
BBX 8 10 0 1
BITMAP
0C
1A
18
18
FF
F8
18
18
18
18
ENDCHAR
STARTCHAR 0067
ENCODING 103
SWIDTH 750 0
DWIDTH 9 0
BBX 8 9 0 -1
BITMAP
79
7B
CF
CF
CF
7B
7B
03
7C
ENDCHAR
STARTCHAR 0068
ENCODING 104
SWIDTH 750 0
DWIDTH 9 0
BBX 8 11 0 0
BITMAP
C0
C0
C0
FC
FC
C3
C3
C3
C3
C3
C3
ENDCHAR
STARTCHAR 0069
ENCODING 105
SWIDTH 750 0
DWIDTH 9 0
BBX 4 10 2 1
BITMAP
40
00
E0
E0
60
60
60
60
60
F0
ENDCHAR
STARTCHAR 006A
ENCODING 106
SWIDTH 750 0
DWIDTH 9 0
BBX 6 11 0 0
BITMAP
04
00
1C
1C
0C
0C
0C
0C
0C
CC
78
ENDCHAR
STARTCHAR 006B
ENCODING 107
SWIDTH 750 0
DWIDTH 9 0
BBX 5 11 2 0
BITMAP
80
80
80
80
88
90
A0
E0
B0
98
88
ENDCHAR
STARTCHAR 006C
ENCODING 108
SWIDTH 750 0
DWIDTH 9 0
BBX 4 11 2 0
BITMAP
E0
E0
60
60
60
60
60
60
60
60
F0
ENDCHAR
STARTCHAR 006D
ENCODING 109
SWIDTH 750 0
DWIDTH 9 0
BBX 8 8 0 0
BITMAP
E0
EC
DB
DB
DB
DB
DB
DB
ENDCHAR
STARTCHAR 006E
ENCODING 110
SWIDTH 750 0
DWIDTH 9 0
BBX 8 8 0 0
BITMAP
9C
DC
E3
C3
C3
C3
C3
C3
ENDCHAR
STARTCHAR 006F
ENCODING 111
SWIDTH 750 0
DWIDTH 9 0
BBX 8 8 0 0
BITMAP
7C
7C
C3
C3
C3
C3
C2
7C
ENDCHAR
STARTCHAR 0070
ENCODING 112
SWIDTH 750 0
DWIDTH 9 0
BBX 8 9 0 -1
BITMAP
9C
DC
E3
E3
E3
DC
DC
C0
C0
ENDCHAR
STARTCHAR 0071
ENCODING 113
SWIDTH 750 0
DWIDTH 9 0
BBX 8 9 0 -1
BITMAP
79
7B
CF
CF
CF
7B
7B
03
03
ENDCHAR
STARTCHAR 0072
ENCODING 114
SWIDTH 750 0
DWIDTH 9 0
BBX 7 8 0 0
BITMAP
9C
DC
E2
C0
C0
C0
C0
C0
ENDCHAR
STARTCHAR 0073
ENCODING 115
SWIDTH 750 0
DWIDTH 9 0
BBX 8 8 0 0
BITMAP
7F
7F
C0
FC
FC
02
02
FC
ENDCHAR
STARTCHAR 0074
ENCODING 116
SWIDTH 750 0
DWIDTH 9 0
BBX 7 11 0 0
BITMAP
60
60
60
7C
FC
60
60
60
62
62
1C
ENDCHAR
STARTCHAR 0075
ENCODING 117
SWIDTH 750 0
DWIDTH 9 0
BBX 7 8 0 0
BITMAP
CC
CC
CC
CC
CC
CC
CE
7A
ENDCHAR
STARTCHAR 0076
ENCODING 118
SWIDTH 750 0
DWIDTH 9 0
BBX 8 8 0 0
BITMAP
C3
C3
C3
C3
C3
64
38
10
ENDCHAR
STARTCHAR 0077
ENCODING 119
SWIDTH 750 0
DWIDTH 9 0
BBX 8 8 0 0
BITMAP
C3
C3
DB
DB
DB
DB
DA
24
ENDCHAR
STARTCHAR 0078
ENCODING 120
SWIDTH 750 0
DWIDTH 9 0
BBX 7 7 0 1
BITMAP
C2
64
38
18
2C
46
82
ENDCHAR
STARTCHAR 0079
ENCODING 121
SWIDTH 750 0
DWIDTH 9 0
BBX 8 9 0 -1
BITMAP
C3
C3
C3
C3
CF
7B
7B
03
7C
ENDCHAR
STARTCHAR 007A
ENCODING 122
SWIDTH 750 0
DWIDTH 9 0
BBX 8 8 0 0
BITMAP
FF
FE
0C
08
10
20
7F
FF
ENDCHAR
STARTCHAR 007B
ENCODING 123
SWIDTH 750 0
DWIDTH 9 0
BBX 6 11 2 0
BITMAP
3C
3C
60
60
60
80
E0
60
60
7C
3C
ENDCHAR
STARTCHAR 007C
ENCODING 124
SWIDTH 750 0
DWIDTH 9 0
BBX 2 11 3 0
BITMAP
C0
C0
C0
C0
C0
00
C0
C0
C0
C0
C0
ENDCHAR
STARTCHAR 007D
ENCODING 125
SWIDTH 750 0
DWIDTH 9 0
BBX 6 11 0 0
BITMAP
E0
E0
18
18
18
0C
08
18
18
10
E0
ENDCHAR
STARTCHAR 007E
ENCODING 126
SWIDTH 750 0
DWIDTH 9 0
BBX 7 4 0 7
BITMAP
60
D2
0E
04
ENDCHAR
STARTCHAR 00A1
ENCODING 161
SWIDTH 750 0
DWIDTH 9 0
BBX 2 10 3 1
BITMAP
80
00
00
00
C0
C0
C0
C0
C0
C0
ENDCHAR
STARTCHAR 00A2
ENCODING 162
SWIDTH 750 0
DWIDTH 9 0
BBX 8 12 0 -1
BITMAP
18
18
18
1F
7F
C0
C0
C0
7F
38
18
18
ENDCHAR
STARTCHAR 00A3
ENCODING 163
SWIDTH 750 0
DWIDTH 9 0
BBX 9 11 0 0
BITMAP
0F00
0F00
1980
1800
1800
FF00
F800
1800
F800
7F80
2F80
ENDCHAR
STARTCHAR 00A5
ENCODING 165
SWIDTH 750 0
DWIDTH 9 0
BBX 8 10 0 1
BITMAP
C2
64
38
18
FF
F8
18
FF
F8
10
ENDCHAR
STARTCHAR 00A7
ENCODING 167
SWIDTH 750 0
DWIDTH 9 0
BBX 6 12 2 -1
BITMAP
7C
7C
80
F0
70
8C
8C
8C
70
78
08
F0
ENDCHAR
STARTCHAR 00AA
ENCODING 170
SWIDTH 750 0
DWIDTH 9 0
BBX 8 10 0 -1
BITMAP
7C
7F
03
7F
43
C3
7F
7F
00
FF
ENDCHAR
STARTCHAR 00AB
ENCODING 171
SWIDTH 750 0
DWIDTH 9 0
BBX 9 7 0 1
BITMAP
1180
2300
4600
C400
6200
3100
1080
ENDCHAR
STARTCHAR 00AC
ENCODING 172
SWIDTH 750 0
DWIDTH 9 0
BBX 8 4 0 2
BITMAP
FF
FF
03
03
ENDCHAR
STARTCHAR 00B0
ENCODING 176
SWIDTH 750 0
DWIDTH 9 0
BBX 6 6 3 3
BITMAP
78
4C
CC
CC
C8
78
ENDCHAR
STARTCHAR 00B1
ENCODING 177
SWIDTH 750 0
DWIDTH 9 0
BBX 8 11 0 0
BITMAP
18
18
18
1F
FF
18
18
18
00
FF
FF
ENDCHAR
STARTCHAR 00B2
ENCODING 178
SWIDTH 750 0
DWIDTH 9 0
BBX 5 7 0 4
BITMAP
60
D8
18
18
20
70
F8
ENDCHAR
STARTCHAR 00B6
ENCODING 182
SWIDTH 750 0
DWIDTH 9 0
BBX 9 11 0 0
BITMAP
7F80
7F80
DB00
DB00
DB00
7B00
3B00
1B00
1B00
1B00
1B00
ENDCHAR
STARTCHAR 00B7
ENCODING 183
SWIDTH 750 0
DWIDTH 9 0
BBX 3 3 3 3
BITMAP
E0
E0
E0
ENDCHAR
STARTCHAR 00BA
ENCODING 186
SWIDTH 750 0
DWIDTH 9 0
BBX 6 10 0 -1
BITMAP
78
4C
CC
CC
CC
CC
78
78
00
FC
ENDCHAR
STARTCHAR 00BB
ENCODING 187
SWIDTH 750 0
DWIDTH 9 0
BBX 9 7 0 1
BITMAP
C400
6200
3100
1180
2300
4600
8400
ENDCHAR
STARTCHAR 00BC
ENCODING 188
SWIDTH 750 0
DWIDTH 9 0
BBX 9 12 0 -1
BITMAP
C000
C180
C300
C600
CC00
DB00
FF00
6F00
DB00
1F00
1F80
0300
ENDCHAR
STARTCHAR 00BD
ENCODING 189
SWIDTH 750 0
DWIDTH 9 0
BBX 9 12 0 -1
BITMAP
C000
C180
C300
C600
CC00
DA00
FF80
6580
C180
0100
0300
0780
ENDCHAR
STARTCHAR 00BE
ENCODING 190
SWIDTH 750 0
DWIDTH 9 0
BBX 9 12 0 -1
BITMAP
E000
E000
6080
6100
E300
6580
6F80
FB80
6D80
4F80
8F80
0180
ENDCHAR
STARTCHAR 00BF
ENCODING 191
SWIDTH 750 0
DWIDTH 9 0
BBX 7 10 0 1
BITMAP
10
00
00
10
20
40
C0
C2
C2
7C
ENDCHAR
STARTCHAR 00C3
ENCODING 195
SWIDTH 750 0
DWIDTH 9 0
BBX 8 10 0 1
BITMAP
1A
2C
38
18
2C
47
C3
FF
C3
83
ENDCHAR
STARTCHAR 00C4
ENCODING 196
SWIDTH 750 0
DWIDTH 9 0
BBX 8 10 0 1
BITMAP
24
00
00
18
2C
47
C3
FF
C3
83
ENDCHAR
STARTCHAR 00C5
ENCODING 197
SWIDTH 750 0
DWIDTH 9 0
BBX 8 10 0 1
BITMAP
10
00
00
18
2C
47
C3
FF
C3
83
ENDCHAR
STARTCHAR 00C6
ENCODING 198
SWIDTH 750 0
DWIDTH 9 0
BBX 9 11 0 0
BITMAP
1F80
1F80
2C00
4C00
CC00
CF80
CC00
FC00
CC00
CF80
CF80
ENDCHAR
STARTCHAR 00C7
ENCODING 199
SWIDTH 750 0
DWIDTH 9 0
BBX 7 12 0 -1
BITMAP
7C
7C
C2
C0
C0
C0
C0
C2
7C
38
18
38
ENDCHAR
STARTCHAR 00C9
ENCODING 201
SWIDTH 750 0
DWIDTH 9 0
BBX 8 10 0 1
BITMAP
0C
18
1F
FF
C0
FC
FC
C0
FF
FF
ENDCHAR
STARTCHAR 00D1
ENCODING 209
SWIDTH 750 0
DWIDTH 9 0
BBX 8 10 0 1
BITMAP
1A
2C
00
00
E3
F3
DB
CF
C7
C3
ENDCHAR
STARTCHAR 00D5
ENCODING 213
SWIDTH 750 0
DWIDTH 9 0
BBX 8 10 0 1
BITMAP
1A
2C
00
00
7C
43
C3
C3
C2
7C
ENDCHAR
STARTCHAR 00D6
ENCODING 214
SWIDTH 750 0
DWIDTH 9 0
BBX 8 10 0 1
BITMAP
24
00
7C
7C
C3
C3
C3
C3
C2
7C
ENDCHAR
STARTCHAR 00DC
ENCODING 220
SWIDTH 750 0
DWIDTH 9 0
BBX 8 10 0 1
BITMAP
24
00
C3
C3
C3
C3
C3
C3
C2
7C
ENDCHAR
STARTCHAR 00E0
ENCODING 224
SWIDTH 750 0
DWIDTH 9 0
BBX 8 10 0 1
BITMAP
18
0C
0C
7C
03
03
7F
C3
43
7F
ENDCHAR
STARTCHAR 00E1
ENCODING 225
SWIDTH 750 0
DWIDTH 9 0
BBX 8 10 0 1
BITMAP
0C
18
38
7C
03
03
7F
C3
43
7F
ENDCHAR
STARTCHAR 00E2
ENCODING 226
SWIDTH 750 0
DWIDTH 9 0
BBX 8 10 0 1
BITMAP
18
6C
7C
7C
03
03
7F
C3
43
7F
ENDCHAR
STARTCHAR 00E3
ENCODING 227
SWIDTH 750 0
DWIDTH 9 0
BBX 8 10 0 1
BITMAP
1A
6C
7C
7C
03
03
7F
C3
43
7F
ENDCHAR
STARTCHAR 00E4
ENCODING 228
SWIDTH 750 0
DWIDTH 9 0
BBX 8 10 0 1
BITMAP
22
00
7C
7C
03
03
7F
C3
43
7F
ENDCHAR
STARTCHAR 00E5
ENCODING 229
SWIDTH 750 0
DWIDTH 9 0
BBX 8 10 0 1
BITMAP
10
00
7C
7C
03
03
7F
C3
43
7F
ENDCHAR
STARTCHAR 00E6
ENCODING 230
SWIDTH 750 0
DWIDTH 9 0
BBX 9 8 0 0
BITMAP
7B80
7B80
0C00
0F80
7F80
CC00
4F80
7B80
ENDCHAR
STARTCHAR 00E7
ENCODING 231
SWIDTH 750 0
DWIDTH 9 0
BBX 6 10 0 -1
BITMAP
7C
40
C0
C0
C0
C0
7C
7C
0C
78
ENDCHAR
STARTCHAR 00E8
ENCODING 232
SWIDTH 750 0
DWIDTH 9 0
BBX 8 10 0 1
BITMAP
18
0C
0C
7C
C3
C3
FF
C0
FC
7C
ENDCHAR
STARTCHAR 00E9
ENCODING 233
SWIDTH 750 0
DWIDTH 9 0
BBX 8 10 0 1
BITMAP
0C
18
38
7C
C3
C3
FF
C0
FC
7C
ENDCHAR
STARTCHAR 00EA
ENCODING 234
SWIDTH 750 0
DWIDTH 9 0
BBX 8 10 0 1
BITMAP
18
6C
7C
7C
C3
C3
FF
C0
FC
7C
ENDCHAR
STARTCHAR 00EB
ENCODING 235
SWIDTH 750 0
DWIDTH 9 0
BBX 8 10 0 1
BITMAP
24
00
7C
7C
C3
C3
FF
C0
FC
7C
ENDCHAR
STARTCHAR 00EC
ENCODING 236
SWIDTH 750 0
DWIDTH 9 0
BBX 4 10 2 1
BITMAP
80
40
00
00
E0
E0
60
60
60
F0
ENDCHAR
STARTCHAR 00ED
ENCODING 237
SWIDTH 750 0
DWIDTH 9 0
BBX 4 10 2 1
BITMAP
30
60
00
00
E0
E0
60
60
60
F0
ENDCHAR
STARTCHAR 00EE
ENCODING 238
SWIDTH 750 0
DWIDTH 9 0
BBX 4 10 2 1
BITMAP
60
B0
00
00
E0
E0
60
60
60
F0
ENDCHAR
STARTCHAR 00EF
ENCODING 239
SWIDTH 750 0
DWIDTH 9 0
BBX 4 10 2 1
BITMAP
90
00
00
00
E0
E0
60
60
60
F0
ENDCHAR
STARTCHAR 00F1
ENCODING 241
SWIDTH 750 0
DWIDTH 9 0
BBX 6 10 0 1
BITMAP
6C
D8
00
00
90
FC
EC
CC
CC
CC
ENDCHAR
STARTCHAR 00F2
ENCODING 242
SWIDTH 750 0
DWIDTH 9 0
BBX 6 10 0 1
BITMAP
20
10
00
00
78
4C
CC
CC
C8
78
ENDCHAR
STARTCHAR 00F3
ENCODING 243
SWIDTH 750 0
DWIDTH 9 0
BBX 6 10 0 1
BITMAP
10
20
00
00
78
4C
CC
CC
C8
78
ENDCHAR
STARTCHAR 00F4
ENCODING 244
SWIDTH 750 0
DWIDTH 9 0
BBX 6 11 0 0
BITMAP
78
78
CC
00
00
78
4C
CC
CC
C8
78
ENDCHAR
STARTCHAR 00F5
ENCODING 245
SWIDTH 750 0
DWIDTH 9 0
BBX 6 10 0 1
BITMAP
6C
D8
00
00
78
4C
CC
CC
C8
78
ENDCHAR
STARTCHAR 00F6
ENCODING 246
SWIDTH 750 0
DWIDTH 9 0
BBX 6 10 0 1
BITMAP
84
00
00
00
78
4C
CC
CC
C8
78
ENDCHAR
STARTCHAR 00F7
ENCODING 247
SWIDTH 750 0
DWIDTH 9 0
BBX 8 7 0 2
BITMAP
10
00
00
FF
FF
00
10
ENDCHAR
STARTCHAR 00F9
ENCODING 249
SWIDTH 750 0
DWIDTH 9 0
BBX 6 10 0 1
BITMAP
20
10
00
00
D8
D8
D8
D8
D8
24
ENDCHAR
STARTCHAR 00FA
ENCODING 250
SWIDTH 750 0
DWIDTH 9 0
BBX 7 10 0 1
BITMAP
10
20
00
00
CC
CC
CC
CC
CE
7A
ENDCHAR
STARTCHAR 00FB
ENCODING 251
SWIDTH 750 0
DWIDTH 9 0
BBX 6 10 0 1
BITMAP
60
D0
00
00
D8
D8
D8
D8
D8
24
ENDCHAR
STARTCHAR 00FC
ENCODING 252
SWIDTH 750 0
DWIDTH 9 0
BBX 7 10 0 1
BITMAP
84
00
00
00
CC
CC
CC
CC
CE
7A
ENDCHAR
STARTCHAR 00FF
ENCODING 255
SWIDTH 750 0
DWIDTH 9 0
BBX 6 11 0 0
BITMAP
84
00
CC
CC
CC
CC
DC
6C
0C
0C
F8
ENDCHAR
STARTCHAR 0128
ENCODING 296
SWIDTH 750 0
DWIDTH 9 0
BBX 5 10 2 1
BITMAP
68
B0
00
00
F0
E0
60
60
60
F0
ENDCHAR
STARTCHAR 0129
ENCODING 297
SWIDTH 750 0
DWIDTH 9 0
BBX 5 10 2 1
BITMAP
68
B0
00
00
60
60
60
60
60
F0
ENDCHAR
STARTCHAR 0132
ENCODING 306
SWIDTH 750 0
DWIDTH 9 0
BBX 9 12 0 -1
BITMAP
FF80
FF80
6300
6300
6300
6300
7300
FB00
0300
0200
2C00
1800
ENDCHAR
STARTCHAR 0133
ENCODING 307
SWIDTH 750 0
DWIDTH 9 0
BBX 4 10 2 -1
BITMAP
90
00
00
B0
B0
B0
B0
B0
30
60
ENDCHAR
STARTCHAR 0168
ENCODING 360
SWIDTH 750 0
DWIDTH 9 0
BBX 8 10 0 1
BITMAP
1A
2C
00
00
C3
C3
C3
C3
C2
7C
ENDCHAR
STARTCHAR 0169
ENCODING 361
SWIDTH 750 0
DWIDTH 9 0
BBX 6 10 0 1
BITMAP
6C
D8
00
00
D8
D8
D8
D8
D8
24
ENDCHAR
STARTCHAR 0192
ENCODING 402
SWIDTH 750 0
DWIDTH 9 0
BBX 8 12 0 -1
BITMAP
0F
0F
18
18
18
FF
F8
18
18
18
18
20
ENDCHAR
STARTCHAR 01C2
ENCODING 450
SWIDTH 750 0
DWIDTH 9 0
BBX 4 11 2 0
BITMAP
60
60
60
60
F0
60
E0
F0
60
60
60
ENDCHAR
STARTCHAR 0393
ENCODING 915
SWIDTH 750 0
DWIDTH 9 0
BBX 8 11 0 0
BITMAP
FF
FF
C3
C1
C0
C0
C0
C0
C0
C0
C0
ENDCHAR
STARTCHAR 0394
ENCODING 916
SWIDTH 750 0
DWIDTH 9 0
BBX 8 9 0 0
BITMAP
18
18
18
6C
6C
6C
C3
C3
FF
ENDCHAR
STARTCHAR 03A3
ENCODING 931
SWIDTH 750 0
DWIDTH 9 0
BBX 8 11 0 0
BITMAP
FF
FF
C3
C1
20
10
30
60
C3
C3
FF
ENDCHAR
STARTCHAR 03A6
ENCODING 934
SWIDTH 750 0
DWIDTH 9 0
BBX 8 12 0 -1
BITMAP
FF
FF
18
38
7C
DB
DB
DB
7C
38
18
FF
ENDCHAR
STARTCHAR 03A9
ENCODING 937
SWIDTH 750 0
DWIDTH 9 0
BBX 8 11 0 0
BITMAP
7C
7C
C3
C3
C3
C3
E0
6C
6C
6E
EF
ENDCHAR
STARTCHAR 03B1
ENCODING 945
SWIDTH 750 0
DWIDTH 9 0
BBX 7 8 0 0
BITMAP
78
7A
CC
CC
CC
CC
CE
7A
ENDCHAR
STARTCHAR 03B2
ENCODING 946
SWIDTH 750 0
DWIDTH 9 0
BBX 8 12 0 -1
BITMAP
1C
1C
63
63
63
7C
63
63
63
62
7C
E0
ENDCHAR
STARTCHAR 03B4
ENCODING 948
SWIDTH 750 0
DWIDTH 9 0
BBX 4 12 2 -1
BITMAP
70
70
80
80
80
40
B0
B0
B0
B0
B0
60
ENDCHAR
STARTCHAR 03B8
ENCODING 952
SWIDTH 750 0
DWIDTH 9 0
BBX 8 10 0 1
BITMAP
18
2C
47
C3
FF
C3
C3
64
38
10
ENDCHAR
STARTCHAR 03BC
ENCODING 956
SWIDTH 750 0
DWIDTH 9 0
BBX 7 10 0 -1
BITMAP
6C
6C
6C
6C
6C
6C
7A
40
C0
C0
ENDCHAR
STARTCHAR 03C0
ENCODING 960
SWIDTH 750 0
DWIDTH 9 0
BBX 8 11 0 0
BITMAP
FF
FE
6C
6C
6C
6C
6C
6C
6C
4E
8F
ENDCHAR
STARTCHAR 03C3
ENCODING 963
SWIDTH 750 0
DWIDTH 9 0
BBX 8 8 0 0
BITMAP
7F
7E
CC
CC
CC
CC
C8
78
ENDCHAR
STARTCHAR 03C4
ENCODING 964
SWIDTH 750 0
DWIDTH 9 0
BBX 6 9 0 0
BITMAP
24
58
98
18
18
18
18
18
18
ENDCHAR
STARTCHAR 03C6
ENCODING 966
SWIDTH 750 0
DWIDTH 9 0
BBX 8 10 0 1
BITMAP
02
7C
5B
DB
DB
DB
DB
7C
40
80
ENDCHAR
STARTCHAR 03C9
ENCODING 969
SWIDTH 750 0
DWIDTH 9 0
BBX 8 6 0 0
BITMAP
24
47
C3
D3
FA
24
ENDCHAR
STARTCHAR 2010
ENCODING 8208
SWIDTH 750 0
DWIDTH 9 0
BBX 3 2 3 3
BITMAP
E0
E0
ENDCHAR
STARTCHAR 2030
ENCODING 8240
SWIDTH 750 0
DWIDTH 9 0
BBX 7 8 0 3
BITMAP
82
04
08
10
20
40
80
12
ENDCHAR
STARTCHAR 207F
ENCODING 8319
SWIDTH 750 0
DWIDTH 9 0
BBX 6 5 0 6
BITMAP
D8
6C
6C
6C
6C
ENDCHAR
STARTCHAR 20A7
ENCODING 8359
SWIDTH 750 0
DWIDTH 9 0
BBX 9 12 0 -1
BITMAP
E000
E000
D800
D800
D800
E200
C700
C780
C300
C300
C300
C380
ENDCHAR
STARTCHAR 2208
ENCODING 8712
SWIDTH 750 0
DWIDTH 9 0
BBX 8 11 0 0
BITMAP
1F
1F
20
40
C0
FF
C0
C0
60
3F
1F
ENDCHAR
STARTCHAR 2219
ENCODING 8729
SWIDTH 750 0
DWIDTH 9 0
BBX 6 6 2 3
BITMAP
70
FC
FC
FC
F8
70
ENDCHAR
STARTCHAR 221A
ENCODING 8730
SWIDTH 750 0
DWIDTH 9 0
BBX 9 11 0 0
BITMAP
1F80
1F80
1800
1800
1800
1800
1800
D800
7800
3800
1800
ENDCHAR
STARTCHAR 221E
ENCODING 8734
SWIDTH 750 0
DWIDTH 9 0
BBX 8 6 0 0
BITMAP
24
5B
DB
DB
DA
24
ENDCHAR
STARTCHAR 2229
ENCODING 8745
SWIDTH 750 0
DWIDTH 9 0
BBX 8 11 0 0
BITMAP
7C
7C
C3
C3
C3
C3
C3
C3
C3
C3
C3
ENDCHAR
STARTCHAR 223D
ENCODING 8765
SWIDTH 750 0
DWIDTH 9 0
BBX 7 4 0 7
BITMAP
0C
9A
70
20
ENDCHAR
STARTCHAR 2248
ENCODING 8776
SWIDTH 750 0
DWIDTH 9 0
BBX 6 7 0 2
BITMAP
24
78
90
00
00
6C
D8
ENDCHAR
STARTCHAR 2261
ENCODING 8801
SWIDTH 750 0
DWIDTH 9 0
BBX 8 7 0 2
BITMAP
FF
FF
00
FF
FF
00
FF
ENDCHAR
STARTCHAR 2264
ENCODING 8804
SWIDTH 750 0
DWIDTH 9 0
BBX 8 11 0 0
BITMAP
0F
0F
78
40
C0
78
7F
0F
00
FF
FF
ENDCHAR
STARTCHAR 2265
ENCODING 8805
SWIDTH 750 0
DWIDTH 9 0
BBX 8 11 0 0
BITMAP
E0
E0
1C
1E
02
1C
00
E0
00
FF
FF
ENDCHAR
STARTCHAR 2310
ENCODING 8976
SWIDTH 750 0
DWIDTH 9 0
BBX 8 4 0 2
BITMAP
FF
C0
C0
C0
ENDCHAR
STARTCHAR 2320
ENCODING 8992
SWIDTH 750 0
DWIDTH 9 0
BBX 4 11 3 0
BITMAP
60
D0
C0
C0
C0
C0
C0
C0
C0
C0
C0
ENDCHAR
STARTCHAR 2321
ENCODING 8993
SWIDTH 750 0
DWIDTH 9 0
BBX 5 12 0 -1
BITMAP
18
18
18
18
18
18
18
18
18
18
D8
60
ENDCHAR
STARTCHAR 2501
ENCODING 9473
SWIDTH 750 0
DWIDTH 9 0
BBX 9 1 0 5
BITMAP
FF80
ENDCHAR
STARTCHAR 2503
ENCODING 9475
SWIDTH 750 0
DWIDTH 9 0
BBX 1 12 5 -1
BITMAP
80
80
80
80
80
80
80
80
80
80
80
80
ENDCHAR
STARTCHAR 250F
ENCODING 9487
SWIDTH 750 0
DWIDTH 9 0
BBX 4 7 5 -1
BITMAP
F0
80
80
80
80
80
80
ENDCHAR
STARTCHAR 2513
ENCODING 9491
SWIDTH 750 0
DWIDTH 9 0
BBX 6 7 0 -1
BITMAP
FC
FC
0C
0C
0C
0C
0C
ENDCHAR
STARTCHAR 2517
ENCODING 9495
SWIDTH 750 0
DWIDTH 9 0
BBX 4 6 5 5
BITMAP
80
80
80
80
80
F0
ENDCHAR
STARTCHAR 251B
ENCODING 9499
SWIDTH 750 0
DWIDTH 9 0
BBX 6 6 0 5
BITMAP
0C
0C
0C
0C
0C
FC
ENDCHAR
STARTCHAR 2523
ENCODING 9507
SWIDTH 750 0
DWIDTH 9 0
BBX 4 12 5 -1
BITMAP
80
80
80
80
80
F0
80
80
80
80
80
80
ENDCHAR
STARTCHAR 252B
ENCODING 9515
SWIDTH 750 0
DWIDTH 9 0
BBX 6 12 0 -1
BITMAP
0C
0C
0C
0C
0C
FC
FC
0C
0C
0C
0C
0C
ENDCHAR
STARTCHAR 2533
ENCODING 9523
SWIDTH 750 0
DWIDTH 9 0
BBX 9 7 0 -1
BITMAP
FF80
FC00
0C00
0C00
0C00
0C00
0C00
ENDCHAR
STARTCHAR 253B
ENCODING 9531
SWIDTH 750 0
DWIDTH 9 0
BBX 9 6 0 5
BITMAP
0C00
0C00
0C00
0C00
0C00
FF80
ENDCHAR
STARTCHAR 253F
ENCODING 9535
SWIDTH 750 0
DWIDTH 9 0
BBX 9 7 0 2
BITMAP
0C00
0C00
0C00
FF80
FC00
0C00
0C00
ENDCHAR
STARTCHAR 2542
ENCODING 9538
SWIDTH 750 0
DWIDTH 9 0
BBX 7 12 2 -1
BITMAP
30
30
30
30
30
FE
F0
30
30
30
30
30
ENDCHAR
STARTCHAR 254B
ENCODING 9547
SWIDTH 750 0
DWIDTH 9 0
BBX 9 12 0 -1
BITMAP
0C00
0C00
0C00
0C00
0C00
FF80
FC00
0C00
0C00
0C00
0C00
0C00
ENDCHAR
STARTCHAR 2571
ENCODING 9585
SWIDTH 750 0
DWIDTH 9 0
BBX 9 8 0 0
BITMAP
0180
0300
0600
0C00
1800
3000
6000
C000
ENDCHAR
STARTCHAR 2572
ENCODING 9586
SWIDTH 750 0
DWIDTH 9 0
BBX 9 8 0 3
BITMAP
C000
6000
3000
1800
0C00
0600
0300
0180
ENDCHAR
STARTCHAR 2573
ENCODING 9587
SWIDTH 750 0
DWIDTH 9 0
BBX 9 11 0 0
BITMAP
C000
6000
3000
1980
0F00
0F00
0F00
1980
3000
6000
C000
ENDCHAR
STARTCHAR 2580
ENCODING 9600
SWIDTH 750 0
DWIDTH 9 0
BBX 9 6 0 5
BITMAP
FF80
FF80
FF80
FF80
FF80
FF80
ENDCHAR
STARTCHAR 2582
ENCODING 9602
SWIDTH 750 0
DWIDTH 9 0
BBX 9 3 0 -1
BITMAP
FF80
FF80
FF80
ENDCHAR
STARTCHAR 2584
ENCODING 9604
SWIDTH 750 0
DWIDTH 9 0
BBX 9 6 0 -1
BITMAP
FF80
FF80
FF80
FF80
FF80
FF80
ENDCHAR
STARTCHAR 2586
ENCODING 9606
SWIDTH 750 0
DWIDTH 9 0
BBX 9 9 0 -1
BITMAP
FF80
FF80
FF80
FF80
FF80
FF80
FF80
FF80
FF80
ENDCHAR
STARTCHAR 2587
ENCODING 9607
SWIDTH 750 0
DWIDTH 9 0
BBX 9 9 0 2
BITMAP
FF80
FF80
FF80
FF80
FF80
FF80
FF80
FF80
FF80
ENDCHAR
STARTCHAR 2588
ENCODING 9608
SWIDTH 750 0
DWIDTH 9 0
BBX 9 12 0 -1
BITMAP
FF80
FF80
FF80
FF80
FF80
FF80
FF80
FF80
FF80
FF80
FF80
FF80
ENDCHAR
STARTCHAR 2589
ENCODING 9609
SWIDTH 750 0
DWIDTH 9 0
BBX 6 12 3 -1
BITMAP
FC
FC
FC
FC
FC
FC
FC
FC
FC
FC
FC
FC
ENDCHAR
STARTCHAR 258A
ENCODING 9610
SWIDTH 750 0
DWIDTH 9 0
BBX 9 12 0 -1
BITMAP
FF80
FF80
FF80
FF80
FF80
FF80
FF80
FF80
FF80
FF80
FF80
FF80
ENDCHAR
STARTCHAR 258C
ENCODING 9612
SWIDTH 750 0
DWIDTH 9 0
BBX 6 12 0 -1
BITMAP
FC
FC
FC
FC
FC
FC
FC
FC
FC
FC
FC
FC
ENDCHAR
STARTCHAR 258E
ENCODING 9614
SWIDTH 750 0
DWIDTH 9 0
BBX 3 12 0 -1
BITMAP
E0
E0
E0
E0
E0
E0
E0
E0
E0
E0
E0
E0
ENDCHAR
STARTCHAR 2590
ENCODING 9616
SWIDTH 750 0
DWIDTH 9 0
BBX 3 12 6 -1
BITMAP
E0
E0
E0
E0
E0
E0
E0
E0
E0
E0
E0
E0
ENDCHAR
STARTCHAR 2592
ENCODING 9618
SWIDTH 750 0
DWIDTH 9 0
BBX 9 12 0 -1
BITMAP
1C00
1C00
1C00
0380
E380
E380
E000
1C00
1C00
0380
E380
E380
ENDCHAR
STARTCHAR 2594
ENCODING 9620
SWIDTH 750 0
DWIDTH 9 0
BBX 9 3 0 8
BITMAP
FF80
FF80
FF80
ENDCHAR
STARTCHAR 2595
ENCODING 9621
SWIDTH 750 0
DWIDTH 9 0
BBX 0 0 0 0
BITMAP
ENDCHAR
STARTCHAR 2596
ENCODING 9622
SWIDTH 750 0
DWIDTH 9 0
BBX 6 6 0 -1
BITMAP
FC
FC
FC
FC
FC
FC
ENDCHAR
STARTCHAR 2597
ENCODING 9623
SWIDTH 750 0
DWIDTH 9 0
BBX 3 6 6 -1
BITMAP
E0
E0
E0
E0
E0
E0
ENDCHAR
STARTCHAR 2598
ENCODING 9624
SWIDTH 750 0
DWIDTH 9 0
BBX 6 6 0 5
BITMAP
FC
FC
FC
FC
FC
FC
ENDCHAR
STARTCHAR 259A
ENCODING 9626
SWIDTH 750 0
DWIDTH 9 0
BBX 9 12 0 -1
BITMAP
FC00
FC00
FC00
FC00
FC00
FC00
FF80
0380
0380
0380
0380
0380
ENDCHAR
STARTCHAR 259D
ENCODING 9629
SWIDTH 750 0
DWIDTH 9 0
BBX 3 6 6 5
BITMAP
E0
E0
E0
E0
E0
E0
ENDCHAR
STARTCHAR 259E
ENCODING 9630
SWIDTH 750 0
DWIDTH 9 0
BBX 9 12 0 -1
BITMAP
0380
0380
0380
0380
0380
0380
0000
FC00
FC00
FC00
FC00
FC00
ENDCHAR
STARTCHAR 25A0
ENCODING 9632
SWIDTH 750 0
DWIDTH 9 0
BBX 9 12 0 -1
BITMAP
FF80
FF80
FF80
FF80
FF80
FF80
FF80
FF80
FF80
FF80
FF80
FF80
ENDCHAR
STARTCHAR 25A7
ENCODING 9639
SWIDTH 750 0
DWIDTH 9 0
BBX 9 11 0 0
BITMAP
C300
6180
3000
1800
0C00
0600
C300
6180
3000
1800
0C00
ENDCHAR
STARTCHAR 25A8
ENCODING 9640
SWIDTH 750 0
DWIDTH 9 0
BBX 9 11 0 0
BITMAP
0C00
1800
3000
6180
C300
0600
0C00
1800
3000
6180
C300
ENDCHAR
STARTCHAR 25B2
ENCODING 9650
SWIDTH 750 0
DWIDTH 9 0
BBX 9 5 0 0
BITMAP
0C00
1E00
3F80
7F80
FF80
ENDCHAR
STARTCHAR 25B6
ENCODING 9654
SWIDTH 750 0
DWIDTH 9 0
BBX 6 11 0 0
BITMAP
80
C0
E0
F0
F8
FC
F8
F0
E0
C0
80
ENDCHAR
STARTCHAR 25BC
ENCODING 9660
SWIDTH 750 0
DWIDTH 9 0
BBX 9 6 0 5
BITMAP
FF80
FF80
7F80
3F00
1E00
0C00
ENDCHAR
STARTCHAR 25C0
ENCODING 9664
SWIDTH 750 0
DWIDTH 9 0
BBX 3 5 6 3
BITMAP
20
60
E0
60
20
ENDCHAR
STARTCHAR 25C7
ENCODING 9671
SWIDTH 750 0
DWIDTH 9 0
BBX 7 7 0 2
BITMAP
10
38
64
C2
46
2C
18
ENDCHAR
STARTCHAR 25CB
ENCODING 9675
SWIDTH 750 0
DWIDTH 9 0
BBX 9 11 0 0
BITMAP
1F00
1F00
2180
4000
C000
C000
C000
C000
6080
2100
1F00
ENDCHAR
STARTCHAR 25D8
ENCODING 9688
SWIDTH 750 0
DWIDTH 9 0
BBX 9 12 0 -1
BITMAP
FF80
FF80
FF80
FF80
FF80
F980
F980
F980
FF80
FF80
FF80
FF80
ENDCHAR
STARTCHAR 25D9
ENCODING 9689
SWIDTH 750 0
DWIDTH 9 0
BBX 9 12 0 -1
BITMAP
E000
E180
DF00
FF80
7F80
7F80
7F80
7F80
DF00
E180
E180
FF80
ENDCHAR
STARTCHAR 25FE
ENCODING 9726
SWIDTH 750 0
DWIDTH 9 0
BBX 6 3 3 3
BITMAP
FC
FC
FC
ENDCHAR
STARTCHAR 263A
ENCODING 9786
SWIDTH 750 0
DWIDTH 9 0
BBX 9 12 0 -1
BITMAP
1F80
1F80
2000
7000
D080
C000
C000
D980
CF00
CF00
2000
1F80
ENDCHAR
STARTCHAR 263B
ENCODING 9787
SWIDTH 750 0
DWIDTH 9 0
BBX 9 12 0 -1
BITMAP
1F80
1F80
3F80
7F00
EF00
FF80
FF80
FF80
EF00
F980
3980
1F80
ENDCHAR
STARTCHAR 263C
ENCODING 9788
SWIDTH 750 0
DWIDTH 9 0
BBX 9 11 0 0
BITMAP
0C00
0C00
2C80
3D00
1F00
FB80
FF00
1F00
2D80
0C00
0C00
ENDCHAR
STARTCHAR 2640
ENCODING 9792
SWIDTH 750 0
DWIDTH 9 0
BBX 7 12 2 -1
BITMAP
7C
7C
86
86
86
86
84
78
30
3E
FE
30
ENDCHAR
STARTCHAR 2642
ENCODING 9794
SWIDTH 750 0
DWIDTH 9 0
BBX 9 12 0 -1
BITMAP
0380
0380
0000
0000
0180
7F00
4300
C300
C300
C300
C300
7C00
ENDCHAR
STARTCHAR 2660
ENCODING 9824
SWIDTH 750 0
DWIDTH 9 0
BBX 9 10 0 1
BITMAP
0C00
1E00
3F80
7F80
FF80
FF80
FF80
0C00
0E00
1F00
ENDCHAR
STARTCHAR 2663
ENCODING 9827
SWIDTH 750 0
DWIDTH 9 0
BBX 9 10 0 1
BITMAP
0C00
1E00
3F80
6D80
FF80
7D80
2C80
0C00
0E00
1F00
ENDCHAR
STARTCHAR 2665
ENCODING 9829
SWIDTH 750 0
DWIDTH 9 0
BBX 9 11 0 0
BITMAP
7B80
7B80
FF80
FF80
FF80
FF80
FF80
3F80
1F00
0E00
0400
ENDCHAR
STARTCHAR 2666
ENCODING 9830
SWIDTH 750 0
DWIDTH 9 0
BBX 9 10 0 1
BITMAP
0C00
1E00
3F80
7F80
FF80
7F80
3F80
1F00
0E00
0400
ENDCHAR
STARTCHAR 266A
ENCODING 9834
SWIDTH 750 0
DWIDTH 9 0
BBX 9 12 0 -1
BITMAP
1C00
1C00
1A00
1980
1980
1980
1900
1A00
1800
1800
F800
E000
ENDCHAR
STARTCHAR 266C
ENCODING 9836
SWIDTH 750 0
DWIDTH 9 0
BBX 9 12 0 -1
BITMAP
1F80
1F80
1980
1980
1F80
1980
1980
1980
F980
F980
EF80
0F00
ENDCHAR
STARTCHAR 275A
ENCODING 10074
SWIDTH 750 0
DWIDTH 9 0
BBX 5 9 3 0
BITMAP
F8
F8
F8
F8
F8
F8
F8
F8
F8
ENDCHAR
STARTCHAR 29D3
ENCODING 10707
SWIDTH 750 0
DWIDTH 9 0
BBX 9 12 0 -1
BITMAP
8000
C000
E000
F080
F980
FF80
FF80
FF80
F980
F080
E000
C000
ENDCHAR
STARTCHAR 29D7
ENCODING 10711
SWIDTH 750 0
DWIDTH 9 0
BBX 9 12 0 -1
BITMAP
FF80
FF80
7F80
3F80
1F80
0F00
0F00
0F00
1F80
3F80
7F80
FF80
ENDCHAR
ENDFONT
